<mxfile host="app.diagrams.net" modified="2023-12-05T20:24:31.036Z" agent="Mozilla/5.0 (Macintosh; Intel Mac OS X 10_15_7) AppleWebKit/605.1.15 (KHTML, like Gecko) Version/17.1 Safari/605.1.15" etag="wkIucYh6QuwLQbKanPax" version="22.1.5" type="device">
  <diagram name="Page-1" id="JwDi8-IxfHvJVO1zewIu">
    <mxGraphModel dx="954" dy="650" grid="1" gridSize="10" guides="1" tooltips="1" connect="1" arrows="1" fold="1" page="1" pageScale="1" pageWidth="850" pageHeight="1100" math="0" shadow="0">
      <root>
        <mxCell id="0" />
        <mxCell id="1" parent="0" />
        <mxCell id="FoOvkmyy_9npr0nRMxJ4-16" style="edgeStyle=orthogonalEdgeStyle;rounded=0;orthogonalLoop=1;jettySize=auto;html=1;exitX=0.75;exitY=1;exitDx=0;exitDy=0;entryX=0.5;entryY=0;entryDx=0;entryDy=0;" edge="1" parent="1" source="FoOvkmyy_9npr0nRMxJ4-1" target="FoOvkmyy_9npr0nRMxJ4-11">
          <mxGeometry relative="1" as="geometry" />
        </mxCell>
        <mxCell id="FoOvkmyy_9npr0nRMxJ4-17" style="edgeStyle=orthogonalEdgeStyle;rounded=0;orthogonalLoop=1;jettySize=auto;html=1;exitX=0.25;exitY=1;exitDx=0;exitDy=0;" edge="1" parent="1" source="FoOvkmyy_9npr0nRMxJ4-1" target="FoOvkmyy_9npr0nRMxJ4-8">
          <mxGeometry relative="1" as="geometry" />
        </mxCell>
        <mxCell id="FoOvkmyy_9npr0nRMxJ4-1" value="&lt;p style=&quot;margin: 0px; font-style: normal; font-variant-caps: normal; font-stretch: normal; line-height: normal; font-size-adjust: none; font-kerning: auto; font-variant-alternates: normal; font-variant-ligatures: normal; font-variant-numeric: normal; font-variant-east-asian: normal; font-variant-position: normal; font-feature-settings: normal; font-optical-sizing: auto; font-variation-settings: normal;&quot;&gt;RemoteWithLocalFallbackFeedLoader&lt;/p&gt;" style="rounded=0;whiteSpace=wrap;html=1;fillColor=#d5e8d4;strokeColor=#82b366;" vertex="1" parent="1">
          <mxGeometry x="310" y="130" width="230" height="40" as="geometry" />
        </mxCell>
        <mxCell id="FoOvkmyy_9npr0nRMxJ4-2" value="&lt;p style=&quot;margin: 0px; font-style: normal; font-variant-caps: normal; font-stretch: normal; line-height: normal; font-size-adjust: none; font-kerning: auto; font-variant-alternates: normal; font-variant-ligatures: normal; font-variant-numeric: normal; font-variant-east-asian: normal; font-variant-position: normal; font-feature-settings: normal; font-optical-sizing: auto; font-variation-settings: normal;&quot;&gt;UlViewController&lt;/p&gt;" style="rounded=0;whiteSpace=wrap;html=1;fillColor=#f8cecc;strokeColor=#b85450;" vertex="1" parent="1">
          <mxGeometry x="355" y="510" width="120" height="40" as="geometry" />
        </mxCell>
        <mxCell id="FoOvkmyy_9npr0nRMxJ4-4" style="edgeStyle=orthogonalEdgeStyle;rounded=0;orthogonalLoop=1;jettySize=auto;html=1;entryX=0.5;entryY=0;entryDx=0;entryDy=0;endArrow=block;endFill=0;" edge="1" parent="1" source="FoOvkmyy_9npr0nRMxJ4-3" target="FoOvkmyy_9npr0nRMxJ4-2">
          <mxGeometry relative="1" as="geometry" />
        </mxCell>
        <mxCell id="FoOvkmyy_9npr0nRMxJ4-7" style="edgeStyle=orthogonalEdgeStyle;rounded=0;orthogonalLoop=1;jettySize=auto;html=1;exitX=0.5;exitY=0;exitDx=0;exitDy=0;entryX=0.5;entryY=1;entryDx=0;entryDy=0;" edge="1" parent="1" source="FoOvkmyy_9npr0nRMxJ4-3" target="FoOvkmyy_9npr0nRMxJ4-6">
          <mxGeometry relative="1" as="geometry" />
        </mxCell>
        <mxCell id="FoOvkmyy_9npr0nRMxJ4-3" value="&lt;p style=&quot;margin: 0px; font-style: normal; font-variant-caps: normal; font-stretch: normal; line-height: normal; font-size-adjust: none; font-kerning: auto; font-variant-alternates: normal; font-variant-ligatures: normal; font-variant-numeric: normal; font-variant-east-asian: normal; font-variant-position: normal; font-feature-settings: normal; font-optical-sizing: auto; font-variation-settings: normal;&quot;&gt;FeedViewController&lt;/p&gt;" style="whiteSpace=wrap;html=1;" vertex="1" parent="1">
          <mxGeometry x="355" y="410" width="120" height="40" as="geometry" />
        </mxCell>
        <mxCell id="FoOvkmyy_9npr0nRMxJ4-6" value="&lt;p style=&quot;margin: 0px; font-style: normal; font-variant-caps: normal; font-stretch: normal; line-height: normal; font-size-adjust: none; font-kerning: auto; font-variant-alternates: normal; font-variant-ligatures: normal; font-variant-numeric: normal; font-variant-east-asian: normal; font-variant-position: normal; font-feature-settings: normal; font-optical-sizing: auto; font-variation-settings: normal;&quot;&gt;&amp;lt;FeedLoader&amp;gt;&lt;/p&gt;" style="whiteSpace=wrap;html=1;" vertex="1" parent="1">
          <mxGeometry x="365" y="310" width="100" height="40" as="geometry" />
        </mxCell>
        <mxCell id="FoOvkmyy_9npr0nRMxJ4-9" style="edgeStyle=orthogonalEdgeStyle;rounded=0;orthogonalLoop=1;jettySize=auto;html=1;exitX=0.5;exitY=1;exitDx=0;exitDy=0;entryX=0;entryY=0.5;entryDx=0;entryDy=0;dashed=1;dashPattern=8 8;endArrow=block;endFill=0;" edge="1" parent="1" source="FoOvkmyy_9npr0nRMxJ4-8" target="FoOvkmyy_9npr0nRMxJ4-6">
          <mxGeometry relative="1" as="geometry" />
        </mxCell>
        <mxCell id="FoOvkmyy_9npr0nRMxJ4-8" value="&lt;p style=&quot;margin: 0px; font-style: normal; font-variant-caps: normal; font-stretch: normal; line-height: normal; font-size-adjust: none; font-kerning: auto; font-variant-alternates: normal; font-variant-ligatures: normal; font-variant-numeric: normal; font-variant-east-asian: normal; font-variant-position: normal; font-feature-settings: normal; font-optical-sizing: auto; font-variation-settings: normal;&quot;&gt;RemoteFeedLoader&lt;/p&gt;" style="whiteSpace=wrap;html=1;fillColor=#dae8fc;strokeColor=#6c8ebf;" vertex="1" parent="1">
          <mxGeometry x="190" y="230" width="130" height="40" as="geometry" />
        </mxCell>
        <mxCell id="FoOvkmyy_9npr0nRMxJ4-12" style="edgeStyle=orthogonalEdgeStyle;rounded=0;orthogonalLoop=1;jettySize=auto;html=1;dashed=1;endArrow=block;endFill=0;dashPattern=8 8;exitX=0.5;exitY=1;exitDx=0;exitDy=0;" edge="1" parent="1" source="FoOvkmyy_9npr0nRMxJ4-11">
          <mxGeometry relative="1" as="geometry">
            <mxPoint x="607.5" y="290" as="sourcePoint" />
            <mxPoint x="470" y="330" as="targetPoint" />
            <Array as="points">
              <mxPoint x="580" y="330" />
            </Array>
          </mxGeometry>
        </mxCell>
        <mxCell id="FoOvkmyy_9npr0nRMxJ4-11" value="&lt;p style=&quot;margin: 0px; font-style: normal; font-variant-caps: normal; font-stretch: normal; line-height: normal; font-size-adjust: none; font-kerning: auto; font-variant-alternates: normal; font-variant-ligatures: normal; font-variant-numeric: normal; font-variant-east-asian: normal; font-variant-position: normal; font-feature-settings: normal; font-optical-sizing: auto; font-variation-settings: normal;&quot;&gt;LocalFeedLoader&lt;/p&gt;" style="whiteSpace=wrap;html=1;fillColor=#e1d5e7;strokeColor=#9673a6;" vertex="1" parent="1">
          <mxGeometry x="520" y="230" width="120" height="40" as="geometry" />
        </mxCell>
        <mxCell id="FoOvkmyy_9npr0nRMxJ4-14" style="edgeStyle=orthogonalEdgeStyle;rounded=0;orthogonalLoop=1;jettySize=auto;html=1;exitX=0.452;exitY=1.075;exitDx=0;exitDy=0;entryX=0.5;entryY=0;entryDx=0;entryDy=0;dashed=1;dashPattern=8 8;endArrow=block;endFill=0;exitPerimeter=0;" edge="1" parent="1" source="FoOvkmyy_9npr0nRMxJ4-1" target="FoOvkmyy_9npr0nRMxJ4-6">
          <mxGeometry relative="1" as="geometry">
            <mxPoint x="360" y="220" as="sourcePoint" />
            <mxPoint x="470" y="280" as="targetPoint" />
          </mxGeometry>
        </mxCell>
        <mxCell id="FoOvkmyy_9npr0nRMxJ4-19" style="edgeStyle=orthogonalEdgeStyle;rounded=0;orthogonalLoop=1;jettySize=auto;html=1;exitX=0;exitY=0.5;exitDx=0;exitDy=0;entryX=1;entryY=0.5;entryDx=0;entryDy=0;dashed=1;dashPattern=8 8;" edge="1" parent="1" source="FoOvkmyy_9npr0nRMxJ4-18" target="FoOvkmyy_9npr0nRMxJ4-1">
          <mxGeometry relative="1" as="geometry" />
        </mxCell>
        <mxCell id="FoOvkmyy_9npr0nRMxJ4-20" style="edgeStyle=orthogonalEdgeStyle;rounded=0;orthogonalLoop=1;jettySize=auto;html=1;exitX=0.25;exitY=1;exitDx=0;exitDy=0;entryX=1;entryY=0.5;entryDx=0;entryDy=0;dashed=1;dashPattern=8 8;" edge="1" parent="1" source="FoOvkmyy_9npr0nRMxJ4-18" target="FoOvkmyy_9npr0nRMxJ4-11">
          <mxGeometry relative="1" as="geometry" />
        </mxCell>
        <mxCell id="FoOvkmyy_9npr0nRMxJ4-21" style="edgeStyle=orthogonalEdgeStyle;rounded=0;orthogonalLoop=1;jettySize=auto;html=1;exitX=0.5;exitY=1;exitDx=0;exitDy=0;entryX=1;entryY=0.5;entryDx=0;entryDy=0;dashed=1;dashPattern=8 8;" edge="1" parent="1" source="FoOvkmyy_9npr0nRMxJ4-18" target="FoOvkmyy_9npr0nRMxJ4-3">
          <mxGeometry relative="1" as="geometry" />
        </mxCell>
        <mxCell id="FoOvkmyy_9npr0nRMxJ4-22" style="edgeStyle=orthogonalEdgeStyle;rounded=0;orthogonalLoop=1;jettySize=auto;html=1;exitX=0.5;exitY=0;exitDx=0;exitDy=0;entryX=0;entryY=0.5;entryDx=0;entryDy=0;dashed=1;dashPattern=8 8;" edge="1" parent="1" source="FoOvkmyy_9npr0nRMxJ4-18" target="FoOvkmyy_9npr0nRMxJ4-8">
          <mxGeometry relative="1" as="geometry" />
        </mxCell>
        <mxCell id="FoOvkmyy_9npr0nRMxJ4-18" value="Feed Assembler/Builder/Factory" style="rounded=0;whiteSpace=wrap;html=1;" vertex="1" parent="1">
          <mxGeometry x="620" y="120" width="190" height="60" as="geometry" />
        </mxCell>
      </root>
    </mxGraphModel>
  </diagram>
</mxfile>
